<svg width="150" height="150" viewBox="0 0 150 150" xmlns="http://www.w3.org/2000/svg" style="background-color: #f0f0f0;"><rect x="0" y="30" width="30" height="30" fill="#F1DEC9" /><rect x="120" y="30" width="30" height="30" fill="#F1DEC9" /><rect x="30" y="30" width="30" height="30" fill="#F1DEC9" /><rect x="90" y="30" width="30" height="30" fill="#F1DEC9" /><rect x="30" y="60" width="30" height="30" fill="#F1DEC9" /><rect x="90" y="60" width="30" height="30" fill="#F1DEC9" /><rect x="60" y="60" width="30" height="30" fill="#F1DEC9" /><rect x="30" y="90" width="30" height="30" fill="#F1DEC9" /><rect x="90" y="90" width="30" height="30" fill="#F1DEC9" /><rect x="60" y="90" width="30" height="30" fill="#F1DEC9" /><rect x="0" y="120" width="30" height="30" fill="#F1DEC9" /><rect x="120" y="120" width="30" height="30" fill="#F1DEC9" /><rect x="30" y="120" width="30" height="30" fill="#F1DEC9" /><rect x="90" y="120" width="30" height="30" fill="#F1DEC9" /><rect x="60" y="120" width="30" height="30" fill="#F1DEC9" /></svg>