<svg width="150" height="150" viewBox="0 0 150 150" xmlns="http://www.w3.org/2000/svg">
        <defs>
            <filter id="nebula-filter">
                <feTurbulence type="fractalNoise" baseFrequency="0.007" numOctaves="4" stitchTiles="stitch"/>
            </filter>
        </defs>
    <rect width="150" height="150" fill="#A4907C" /><rect width="150" height="150" fill="#F1DEC9" filter="url(#nebula-filter)" style="mix-blend-mode: screen; opacity: 0.6;"/><rect width="150" height="150" fill="#C8B6A6" filter="url(#nebula-filter)" style="mix-blend-mode: lighten; opacity: 0.5; transform: rotate(135deg) scale(1.2);"/><circle cx="69" cy="14" r="1.0411614539759055" fill="white" style="opacity: 0.8619934936808392;" /><circle cx="110" cy="121" r="0.5154268626195504" fill="white" style="opacity: 0.8680005692262205;" /><circle cx="92" cy="139" r="0.7443754895796886" fill="white" style="opacity: 0.9398049292805628;" /><circle cx="86" cy="62" r="0.5948363930428571" fill="white" style="opacity: 0.6265048168723029;" /><circle cx="145" cy="131" r="1.2698378814243887" fill="white" style="opacity: 0.637634283228607;" /><circle cx="83" cy="59" r="1.5297802030247545" fill="white" style="opacity: 0.5987576623907116;" /><circle cx="2" cy="149" r="1.583317540904189" fill="white" style="opacity: 0.984871146727759;" /><circle cx="82" cy="84" r="0.8872626786992246" fill="white" style="opacity: 0.9017241394155305;" /><circle cx="38" cy="125" r="1.2791033523059931" fill="white" style="opacity: 0.7917817392348228;" /><circle cx="137" cy="75" r="1.3913368843921166" fill="white" style="opacity: 0.9822958956855796;" /><circle cx="146" cy="82" r="0.9721797431223931" fill="white" style="opacity: 0.8815631784412838;" /><circle cx="102" cy="30" r="1.3137076450575642" fill="white" style="opacity: 0.5391992232944812;" /><circle cx="149" cy="33" r="1.419774935077771" fill="white" style="opacity: 0.8446718923955558;" /><circle cx="84" cy="82" r="1.6937343116820485" fill="white" style="opacity: 0.9253036377138009;" /><circle cx="141" cy="22" r="1.0730905388356606" fill="white" style="opacity: 0.8210096239675813;" /><circle cx="101" cy="92" r="0.9814943241334959" fill="white" style="opacity: 0.7759546005520759;" /><circle cx="41" cy="7" r="1.4558346402625713" fill="white" style="opacity: 0.8453521997879037;" /><circle cx="108" cy="53" r="1.6910538326907223" fill="white" style="opacity: 0.9957909735365729;" /><circle cx="39" cy="130" r="1.4308548728613437" fill="white" style="opacity: 0.7854319113704524;" /><circle cx="32" cy="121" r="1.6020501104658702" fill="white" style="opacity: 0.8554286702328495;" /><circle cx="33" cy="119" r="1.4525950207154243" fill="white" style="opacity: 0.6960702050458967;" /><circle cx="107" cy="109" r="0.7538522447710169" fill="white" style="opacity: 0.7009564895187301;" /><circle cx="79" cy="68" r="1.663124108111078" fill="white" style="opacity: 0.9698373006981971;" /><circle cx="147" cy="140" r="1.6527342227998814" fill="white" style="opacity: 0.7887094392388637;" /><circle cx="22" cy="10" r="1.1209415488973917" fill="white" style="opacity: 0.9425799166516307;" /><circle cx="46" cy="119" r="0.7072533669915299" fill="white" style="opacity: 0.5219749657073873;" /><circle cx="49" cy="19" r="0.6708461173674306" fill="white" style="opacity: 0.7766774530879583;" /><circle cx="129" cy="50" r="0.7802628153377504" fill="white" style="opacity: 0.7215976711463172;" /><circle cx="109" cy="65" r="1.3178167998873707" fill="white" style="opacity: 0.7886811272654128;" /><circle cx="114" cy="23" r="1.6866295607698287" fill="white" style="opacity: 0.5321528618373689;" /><circle cx="62" cy="140" r="1.0370529786390499" fill="white" style="opacity: 0.5420240869475641;" /><circle cx="31" cy="27" r="0.8436726767307485" fill="white" style="opacity: 0.8593102916420019;" /><circle cx="3" cy="4" r="1.2095534869979851" fill="white" style="opacity: 0.5188302507246054;" /><circle cx="72" cy="58" r="1.479468783633536" fill="white" style="opacity: 0.6421751594832983;" /><circle cx="135" cy="32" r="0.9563272329309617" fill="white" style="opacity: 0.6033287893996242;" /><circle cx="104" cy="37" r="1.6823347724891895" fill="white" style="opacity: 0.8897641831495633;" /><circle cx="18" cy="54" r="1.09677350958659" fill="white" style="opacity: 0.8504011097133165;" /><circle cx="130" cy="39" r="1.0077411687503295" fill="white" style="opacity: 0.9292137694681127;" /><circle cx="141" cy="96" r="0.9919485098179189" fill="white" style="opacity: 0.6412969334708978;" /><circle cx="47" cy="34" r="1.5164347262198268" fill="white" style="opacity: 0.8045778504128465;" /><circle cx="65" cy="27" r="0.8236884319799432" fill="white" style="opacity: 0.7166749256275011;" /><circle cx="41" cy="38" r="1.046061405607528" fill="white" style="opacity: 0.9141842724821457;" /><circle cx="126" cy="42" r="1.1572601476019528" fill="white" style="opacity: 0.6707133360536366;" /><circle cx="107" cy="145" r="1.259758060034252" fill="white" style="opacity: 0.7330953864069168;" /><circle cx="131" cy="104" r="0.7557741380556366" fill="white" style="opacity: 0.9254735679949977;" /><circle cx="38" cy="132" r="1.2678693126737461" fill="white" style="opacity: 0.6263156927313263;" /><circle cx="33" cy="96" r="0.6551704625390332" fill="white" style="opacity: 0.743971451764913;" /><circle cx="110" cy="114" r="0.6098728668456305" fill="white" style="opacity: 0.9900063492776856;" /><circle cx="22" cy="110" r="0.9149495717207666" fill="white" style="opacity: 0.9583723987258842;" /><circle cx="114" cy="23" r="0.8015578338417959" fill="white" style="opacity: 0.5390023358813498;" /><circle cx="70" cy="56" r="1.2053733167729215" fill="white" style="opacity: 0.5313083704241125;" /><circle cx="17" cy="95" r="0.7263744126196832" fill="white" style="opacity: 0.9182281840677504;" /><circle cx="2" cy="4" r="1.6099642894742843" fill="white" style="opacity: 0.6835303107199866;" /><circle cx="89" cy="51" r="0.7241059226096169" fill="white" style="opacity: 0.7060455843834419;" /><circle cx="9" cy="56" r="1.1315066064854649" fill="white" style="opacity: 0.9895554997443945;" /></svg>