<svg width="150" height="150" viewBox="0 0 150 150" xmlns="http://www.w3.org/2000/svg">
        <defs>
            <filter id="nebula-filter">
                <feTurbulence type="fractalNoise" baseFrequency="0.006" numOctaves="3" stitchTiles="stitch"/>
            </filter>
        </defs>
    <rect width="150" height="150" fill="#A4907C" /><rect width="150" height="150" fill="#464E47" filter="url(#nebula-filter)" style="mix-blend-mode: screen; opacity: 0.6;"/><rect width="150" height="150" fill="#8D7B68" filter="url(#nebula-filter)" style="mix-blend-mode: lighten; opacity: 0.5; transform: rotate(144deg) scale(1.2);"/><circle cx="34" cy="77" r="0.5854799053098447" fill="white" style="opacity: 0.6044070809634435;" /><circle cx="8" cy="117" r="1.1776919697773138" fill="white" style="opacity: 0.5263966997276976;" /><circle cx="20" cy="77" r="0.8673587834310525" fill="white" style="opacity: 0.7920111682228796;" /><circle cx="103" cy="87" r="1.641384248035673" fill="white" style="opacity: 0.8792639709446877;" /><circle cx="95" cy="134" r="0.5743891861636141" fill="white" style="opacity: 0.9144575672291487;" /><circle cx="102" cy="35" r="0.6158242393824385" fill="white" style="opacity: 0.7912738080095844;" /><circle cx="32" cy="99" r="0.5648940461058607" fill="white" style="opacity: 0.828148801731015;" /><circle cx="101" cy="77" r="0.5696969498273436" fill="white" style="opacity: 0.9435336475463275;" /><circle cx="71" cy="132" r="1.1316994796654671" fill="white" style="opacity: 0.6955906270051331;" /><circle cx="53" cy="66" r="1.5325657866115523" fill="white" style="opacity: 0.9130298452978161;" /><circle cx="127" cy="1" r="0.6601038188487774" fill="white" style="opacity: 0.700979662454212;" /><circle cx="135" cy="56" r="0.8882672330309951" fill="white" style="opacity: 0.9931989128204057;" /><circle cx="34" cy="117" r="0.6834185418595646" fill="white" style="opacity: 0.6490446301871187;" /><circle cx="29" cy="41" r="1.3594556948446928" fill="white" style="opacity: 0.6929971993402565;" /><circle cx="64" cy="103" r="1.2894715351934878" fill="white" style="opacity: 0.7414894438076249;" /><circle cx="74" cy="22" r="0.6858245962233397" fill="white" style="opacity: 0.6785132089529714;" /><circle cx="4" cy="101" r="0.5889648855146788" fill="white" style="opacity: 0.5979727833056696;" /><circle cx="141" cy="108" r="1.4785533691656558" fill="white" style="opacity: 0.8835087438968516;" /><circle cx="144" cy="10" r="0.7922890901063984" fill="white" style="opacity: 0.5331650490561337;" /><circle cx="70" cy="5" r="0.7753233128578045" fill="white" style="opacity: 0.7677077920025717;" /><circle cx="54" cy="137" r="1.0209083429169414" fill="white" style="opacity: 0.5235581323614149;" /><circle cx="61" cy="19" r="0.5231763199079672" fill="white" style="opacity: 0.9756023520490166;" /><circle cx="13" cy="84" r="1.3199935108516336" fill="white" style="opacity: 0.6774405686545375;" /><circle cx="27" cy="103" r="0.7567587462518172" fill="white" style="opacity: 0.8233224203918699;" /><circle cx="135" cy="123" r="1.6362143924162789" fill="white" style="opacity: 0.5082429975775271;" /><circle cx="147" cy="0" r="0.9894637896164618" fill="white" style="opacity: 0.7155187803858513;" /><circle cx="71" cy="4" r="0.641309053889154" fill="white" style="opacity: 0.5096728759862822;" /><circle cx="34" cy="94" r="0.8535570522554019" fill="white" style="opacity: 0.6421268732017497;" /><circle cx="90" cy="34" r="1.276357700105923" fill="white" style="opacity: 0.8500129824271486;" /><circle cx="16" cy="149" r="1.3869766725632253" fill="white" style="opacity: 0.7220413557822077;" /><circle cx="37" cy="5" r="1.0891094309227118" fill="white" style="opacity: 0.6652058014484149;" /><circle cx="138" cy="48" r="1.428744447663773" fill="white" style="opacity: 0.9608687651161425;" /><circle cx="74" cy="34" r="1.0113682412129679" fill="white" style="opacity: 0.6613975875831197;" /><circle cx="121" cy="18" r="1.1967414160709555" fill="white" style="opacity: 0.6904976380479045;" /><circle cx="66" cy="114" r="1.6322001246419735" fill="white" style="opacity: 0.6388853556191947;" /><circle cx="69" cy="1" r="1.0029845253112653" fill="white" style="opacity: 0.700031902734205;" /><circle cx="46" cy="110" r="1.4326526709518639" fill="white" style="opacity: 0.7855656045887459;" /><circle cx="33" cy="84" r="1.444967562027726" fill="white" style="opacity: 0.8033690474943114;" /><circle cx="81" cy="139" r="0.7795750338023413" fill="white" style="opacity: 0.6342836537558043;" /><circle cx="22" cy="147" r="0.8497689595212083" fill="white" style="opacity: 0.6081034404263382;" /><circle cx="14" cy="126" r="0.6305499233913374" fill="white" style="opacity: 0.6233041231163331;" /><circle cx="39" cy="77" r="0.580662894286524" fill="white" style="opacity: 0.9795873011367336;" /><circle cx="33" cy="69" r="0.8688093321252657" fill="white" style="opacity: 0.707710776574775;" /><circle cx="0" cy="69" r="0.6408951253354992" fill="white" style="opacity: 0.9807983504053197;" /><circle cx="132" cy="26" r="0.836602393880767" fill="white" style="opacity: 0.8128866375483976;" /><circle cx="147" cy="63" r="1.381849404835072" fill="white" style="opacity: 0.6790356492526064;" /><circle cx="104" cy="132" r="1.4337354379397516" fill="white" style="opacity: 0.9013642260811126;" /><circle cx="83" cy="0" r="1.1675415006780725" fill="white" style="opacity: 0.9451823772141628;" /><circle cx="18" cy="29" r="1.4303673696379957" fill="white" style="opacity: 0.7692021509954716;" /><circle cx="33" cy="42" r="0.7597639485540632" fill="white" style="opacity: 0.8878380529991527;" /><circle cx="22" cy="73" r="1.180092009846164" fill="white" style="opacity: 0.6949745112541013;" /><circle cx="16" cy="48" r="1.5811788156075304" fill="white" style="opacity: 0.8308169419555073;" /><circle cx="75" cy="73" r="1.1072491641190132" fill="white" style="opacity: 0.549518731678612;" /><circle cx="96" cy="21" r="1.5088280440349262" fill="white" style="opacity: 0.9066997095508034;" /><circle cx="37" cy="17" r="1.6381159104118663" fill="white" style="opacity: 0.7152314859979001;" /><circle cx="0" cy="51" r="0.9617655944366779" fill="white" style="opacity: 0.9489033787739013;" /><circle cx="2" cy="80" r="1.225234068709069" fill="white" style="opacity: 0.9224341231968413;" /><circle cx="136" cy="98" r="1.3064149998158285" fill="white" style="opacity: 0.7056024909045558;" /><circle cx="36" cy="41" r="1.4941652075360365" fill="white" style="opacity: 0.7352550889995205;" /><circle cx="52" cy="32" r="0.5280494086574993" fill="white" style="opacity: 0.5278301548808022;" /><circle cx="54" cy="106" r="0.7139808484418229" fill="white" style="opacity: 0.6639970402065651;" /><circle cx="0" cy="5" r="1.3222709242358204" fill="white" style="opacity: 0.8393643860888502;" /><circle cx="47" cy="68" r="0.9875423238089039" fill="white" style="opacity: 0.5441078481004145;" /><circle cx="90" cy="132" r="0.799493457702684" fill="white" style="opacity: 0.9802838873492012;" /></svg>