<svg width="150" height="150" viewBox="0 0 150 150" xmlns="http://www.w3.org/2000/svg" style="background-color: #000000;"><rect x="18.75" y="0" width="18.75" height="18.75" fill="#004dff" /><rect x="56.25" y="0" width="18.75" height="18.75" fill="#ff8c00" /><rect x="93.75" y="0" width="18.75" height="18.75" fill="#e40303" /><rect x="0" y="18.75" width="18.75" height="18.75" fill="#ffafc8" /><rect x="18.75" y="18.75" width="18.75" height="18.75" fill="#004dff" /><rect x="37.5" y="18.75" width="18.75" height="18.75" fill="#e40303" /><rect x="75" y="18.75" width="18.75" height="18.75" fill="#613915" /><rect x="93.75" y="18.75" width="18.75" height="18.75" fill="#e40303" /><rect x="112.5" y="18.75" width="18.75" height="18.75" fill="#750787" /><rect x="18.75" y="37.5" width="18.75" height="18.75" fill="#004dff" /><rect x="37.5" y="37.5" width="18.75" height="18.75" fill="#e40303" /><rect x="75" y="37.5" width="18.75" height="18.75" fill="#613915" /><rect x="112.5" y="37.5" width="18.75" height="18.75" fill="#750787" /><rect x="131.25" y="37.5" width="18.75" height="18.75" fill="#750787" /><rect x="0" y="56.25" width="18.75" height="18.75" fill="#ffafc8" /><rect x="18.75" y="56.25" width="18.75" height="18.75" fill="#004dff" /><rect x="37.5" y="56.25" width="18.75" height="18.75" fill="#e40303" /><rect x="56.25" y="56.25" width="18.75" height="18.75" fill="#ff8c00" /><rect x="18.75" y="75" width="18.75" height="18.75" fill="#004dff" /><rect x="56.25" y="75" width="18.75" height="18.75" fill="#ff8c00" /><rect x="93.75" y="75" width="18.75" height="18.75" fill="#e40303" /><rect x="0" y="93.75" width="18.75" height="18.75" fill="#ffafc8" /><rect x="18.75" y="93.75" width="18.75" height="18.75" fill="#004dff" /><rect x="37.5" y="93.75" width="18.75" height="18.75" fill="#e40303" /><rect x="75" y="93.75" width="18.75" height="18.75" fill="#613915" /><rect x="93.75" y="93.75" width="18.75" height="18.75" fill="#e40303" /><rect x="112.5" y="93.75" width="18.75" height="18.75" fill="#750787" /><rect x="18.75" y="112.5" width="18.75" height="18.75" fill="#004dff" /><rect x="37.5" y="112.5" width="18.75" height="18.75" fill="#e40303" /><rect x="75" y="112.5" width="18.75" height="18.75" fill="#613915" /><rect x="112.5" y="112.5" width="18.75" height="18.75" fill="#750787" /><rect x="131.25" y="112.5" width="18.75" height="18.75" fill="#750787" /><rect x="0" y="131.25" width="18.75" height="18.75" fill="#ffafc8" /><rect x="18.75" y="131.25" width="18.75" height="18.75" fill="#004dff" /><rect x="37.5" y="131.25" width="18.75" height="18.75" fill="#e40303" /><rect x="56.25" y="131.25" width="18.75" height="18.75" fill="#ff8c00" /></svg>