<svg width="150" height="150" viewBox="0 0 150 150" xmlns="http://www.w3.org/2000/svg" style="background-color: #272822;"><rect x="18.75" y="0" width="18.75" height="18.75" fill="#75715e" /><rect x="56.25" y="0" width="18.75" height="18.75" fill="#a59f85" /><rect x="93.75" y="0" width="18.75" height="18.75" fill="#49483e" /><rect x="0" y="18.75" width="18.75" height="18.75" fill="#66d9ef" /><rect x="18.75" y="18.75" width="18.75" height="18.75" fill="#75715e" /><rect x="37.5" y="18.75" width="18.75" height="18.75" fill="#49483e" /><rect x="75" y="18.75" width="18.75" height="18.75" fill="#f92672" /><rect x="93.75" y="18.75" width="18.75" height="18.75" fill="#49483e" /><rect x="112.5" y="18.75" width="18.75" height="18.75" fill="#383d3b" /><rect x="18.75" y="37.5" width="18.75" height="18.75" fill="#75715e" /><rect x="37.5" y="37.5" width="18.75" height="18.75" fill="#49483e" /><rect x="75" y="37.5" width="18.75" height="18.75" fill="#f92672" /><rect x="112.5" y="37.5" width="18.75" height="18.75" fill="#383d3b" /><rect x="131.25" y="37.5" width="18.75" height="18.75" fill="#383d3b" /><rect x="0" y="56.25" width="18.75" height="18.75" fill="#66d9ef" /><rect x="18.75" y="56.25" width="18.75" height="18.75" fill="#75715e" /><rect x="37.5" y="56.25" width="18.75" height="18.75" fill="#49483e" /><rect x="56.25" y="56.25" width="18.75" height="18.75" fill="#a59f85" /><rect x="18.75" y="75" width="18.75" height="18.75" fill="#75715e" /><rect x="56.25" y="75" width="18.75" height="18.75" fill="#a59f85" /><rect x="93.75" y="75" width="18.75" height="18.75" fill="#49483e" /><rect x="0" y="93.75" width="18.75" height="18.75" fill="#66d9ef" /><rect x="18.75" y="93.75" width="18.75" height="18.75" fill="#75715e" /><rect x="37.5" y="93.75" width="18.75" height="18.75" fill="#49483e" /><rect x="75" y="93.75" width="18.75" height="18.75" fill="#f92672" /><rect x="93.75" y="93.75" width="18.75" height="18.75" fill="#49483e" /><rect x="112.5" y="93.75" width="18.75" height="18.75" fill="#383d3b" /><rect x="18.75" y="112.5" width="18.75" height="18.75" fill="#75715e" /><rect x="37.5" y="112.5" width="18.75" height="18.75" fill="#49483e" /><rect x="75" y="112.5" width="18.75" height="18.75" fill="#f92672" /><rect x="112.5" y="112.5" width="18.75" height="18.75" fill="#383d3b" /><rect x="131.25" y="112.5" width="18.75" height="18.75" fill="#383d3b" /><rect x="0" y="131.25" width="18.75" height="18.75" fill="#66d9ef" /><rect x="18.75" y="131.25" width="18.75" height="18.75" fill="#75715e" /><rect x="37.5" y="131.25" width="18.75" height="18.75" fill="#49483e" /><rect x="56.25" y="131.25" width="18.75" height="18.75" fill="#a59f85" /></svg>