<svg width="150" height="150" viewBox="0 0 100 100" xmlns="http://www.w3.org/2000/svg" style="background-color: #021c41;">
    <defs>
      <mask id="poly-mask">
        <rect width="100" height="100" fill="white" />
        <g transform="translate(17.102572953379678 22.174740121329673)">
          <polygon points="51.59090735089485,21.920894128670625 46.70225658198376,40.144029159664 28.479121550990385,40.30466160598335 9.824267699622808,40.5757479800382 6.769738432784635,21.92089412867063 12.19952604410592,5.641298621786163 28.47912155099038,-2.3842088724824215 42.85354362503019,7.5464720546308115" transform="rotate(87.26816103411693 28.479121550990385 21.920894128670625)" fill="black" />
        </g>
      </mask>
      <mask id="poly-mask-inverse">
        <rect width="100" height="100" fill="black" />
        <g transform="translate(17.102572953379678 22.174740121329673)">
          <polygon points="51.59090735089485,21.920894128670625 46.70225658198376,40.144029159664 28.479121550990385,40.30466160598335 9.824267699622808,40.5757479800382 6.769738432784635,21.92089412867063 12.19952604410592,5.641298621786163 28.47912155099038,-2.3842088724824215 42.85354362503019,7.5464720546308115" transform="rotate(87.26816103411693 28.479121550990385 21.920894128670625)" fill="white" />
        </g>
      </mask>
    </defs>
    
    <g transform="translate(17.102572953379678 22.174740121329673)">
      <!-- Draw the first polygon -->
      <polygon points="51.59090735089485,21.920894128670625 46.70225658198376,40.144029159664 28.479121550990385,40.30466160598335 9.824267699622808,40.5757479800382 6.769738432784635,21.92089412867063 12.19952604410592,5.641298621786163 28.47912155099038,-2.3842088724824215 42.85354362503019,7.5464720546308115" transform="rotate(87.26816103411693 28.479121550990385 21.920894128670625)" fill="#2B3252" />
      
      <!-- Draw the second polygon, but only where it does NOT overlap with the first -->
      <polygon points="85.24710934526273,33.72962562867003 49.39434065208728,70.90375896030693 -0.5347811927760233,61.22963356401767 5.900455779850045,10.905091031727714 53.47358560727851,-15.999132745664156" transform="rotate(168.11532174047898 37.31573254225026 33.72962562867003)" fill="#09186D" mask="url(#poly-mask)" />
      
      <!-- Draw the intersection area with the third color -->
      <polygon points="85.24710934526273,33.72962562867003 49.39434065208728,70.90375896030693 -0.5347811927760233,61.22963356401767 5.900455779850045,10.905091031727714 53.47358560727851,-15.999132745664156" transform="rotate(168.11532174047898 37.31573254225026 33.72962562867003)" fill="#819fa7" mask="url(#poly-mask-inverse)" />
    </g>
  </svg>